M48
; DRILL file {KiCad 5.1.9-5.1.9} date Fri May 28 23:48:10 2021
; FORMAT={-:-/ absolute / inch / decimal}
; #@! TF.CreationDate,2021-05-28T23:48:10+02:00
; #@! TF.GenerationSoftware,Kicad,Pcbnew,5.1.9-5.1.9
; #@! TF.FileFunction,Plated,1,2,PTH
FMAT,2
INCH
T1C0.0394
T2C0.0591
T3C0.0701
T4C0.0906
%
G90
G05
T1
X4.7Y-3.1
X4.7Y-3.2031
X4.7984Y-3.1
X4.7984Y-3.2031
X4.8772Y-3.1
X4.8772Y-3.2031
X4.9756Y-3.1
X4.9756Y-3.2031
X5.0Y-1.65
X5.189Y-1.65
X5.378Y-1.65
X5.5669Y-1.65
X5.75Y-2.55
X5.7559Y-1.65
X5.9449Y-1.65
X6.0Y-2.25
X6.1Y-2.25
X6.45Y-2.25
X6.55Y-2.25
X6.55Y-2.55
X6.8Y-1.8
X6.8Y-1.9
X6.8Y-2.1
X6.8Y-2.9
T2
X4.65Y-2.2
X5.5398Y-2.2
T3
X6.1Y-3.25
X6.3Y-3.25
X6.5Y-3.25
X6.7Y-3.25
T4
X4.5791Y-3.0862
X4.5791Y-3.3098
X5.0965Y-3.0862
X5.0965Y-3.3098
T1
G00X4.1531Y-2.3098
M15
G01X4.1531Y-2.3295
M16
G05
G00X4.1531Y-2.5854
M15
G01X4.1531Y-2.6051
M16
G05
G00X4.1531Y-2.861
M15
G01X4.1531Y-2.8807
M16
G05
G00X4.2024Y-1.8079
M15
G01X4.1827Y-1.8079
M16
G05
G00X4.2024Y-1.9654
M15
G01X4.1827Y-1.9654
M16
G05
T0
M30
